<svg xmlns="http://www.w3.org/2000/svg" style="display: none;">
  <symbol id="icon-play" viewBox="0 0 16 16">
    <path d="M3.06 12.61V2.39L11.23 7.5L3.06 12.61ZM1.46 0.95V14.05C1.46 14.68 2.15 15.06 2.68 14.73L13.16 8.18C13.66 7.86 13.66 7.14 13.16 6.82L2.68 0.27C2.15 -0.06 1.46 0.32 1.46 0.95Z" stroke-width="1"></path>
  </symbol>
  <symbol id="icon-pause" viewBox="0 0 16 16">
    <path d="M2.6 0.15H4.23V14.85H2.6V0.15ZM10.77 0.15H12.4V14.85H10.77V0.15Z" stroke-width="1"></path>
  </symbol>
  <symbol id="icon-volume-up" viewBox="0 0 16 16">
    <path d="M7.93 3.37L4.99 5.77H1.88V9.23H4.99L7.93 11.63V3.37ZM4.38 10.96H1.01C0.54 10.96 0.15 10.57 0.15 10.09V4.91C0.15 4.43 0.54 4.04 1.01 4.04H4.38L8.96 0.3C9.14 0.14 9.41 0.17 9.56 0.36C9.63 0.43 9.66 0.53 9.66 0.63V14.37C9.66 14.61 9.47 14.8 9.23 14.8C9.13 14.8 9.03 14.77 8.96 14.7L4.38 10.96ZM13 11.47L11.77 10.24C12.59 9.61 13.12 8.62 13.12 7.5C13.12 6.26 12.47 5.18 11.5 4.57L12.74 3.32C14.02 4.27 14.85 5.79 14.85 7.5C14.85 9.09 14.13 10.52 13 11.47Z" stroke-width="1"></path>
  </symbol>
  <symbol id="icon-volume-down" viewBox="0 0 16 16">
    <path d="M7.93 3.37L4.99 5.77H1.88V9.23H4.99L7.93 11.63V3.37ZM4.38 10.96H1.01C0.54 10.96 0.15 10.57 0.15 10.09V4.91C0.15 4.43 0.54 4.04 1.01 4.04H4.38L8.96 0.3C9.14 0.14 9.41 0.17 9.56 0.36C9.63 0.43 9.66 0.53 9.66 0.63V14.37C9.66 14.61 9.47 14.8 9.23 14.8C9.13 14.8 9.03 14.77 8.96 14.7L4.38 10.96ZM13 11.47L11.77 10.24C12.59 9.61 13.12 8.62 13.12 7.5C13.12 6.26 12.47 5.18 11.5 4.57L12.74 3.32C14.02 4.27 14.85 5.79 14.85 7.5C14.85 9.09 14.13 10.52 13 11.47Z" stroke-width="1"></path>
  </symbol>
  <symbol id="icon-mute" width="100%" height="100%" viewBox="0 0 16 16">
    <path d="M5.91 4.44L3.74 6.22H1.43V8.78H3.74L5.91 10.56V4.44ZM3.28 10.06H0.79C0.44 10.06 0.15 9.78 0.15 9.42V5.58C0.15 5.22 0.44 4.94 0.79 4.94H3.28L6.67 2.16C6.81 2.05 7.01 2.07 7.12 2.21C7.17 2.27 7.2 2.34 7.2 2.41V12.59C7.2 12.77 7.05 12.91 6.88 12.91C6.8 12.91 6.73 12.88 6.67 12.84L3.28 10.06ZM12.59 7.5L14.85 9.76L13.94 10.67L11.68 8.41L9.41 10.67L8.51 9.76L10.77 7.5L8.51 5.24L9.41 4.33L11.68 6.59L13.94 4.33L14.85 5.24L12.59 7.5Z" stroke-width="1"></path>
  </symbol>
  <symbol id="icon-fullscreen" viewBox="0 0 16 16">
    <path d="M4.56 0.89V2.36H1.62V5.3H0.15V0.89H4.56ZM0.15 14.12V9.71H1.62V12.65H4.56V14.12H0.15ZM14.85 14.12H10.44V12.65H13.38V9.71H14.85V14.12ZM14.85 5.3H13.38V2.36H10.44V0.89H14.85V5.3Z" stroke-width="1"></path>
  </symbol>
  <symbol id="icon-fullscreen-exit" viewBox="0 0 16 16">
    <path d="M11.91 3.825H14.850000000000001V5.295H10.440000000000001V0.885H11.91V3.825ZM4.5600000000000005 5.295H0.15V3.825H3.09V0.885H4.5600000000000005V5.295ZM11.91 11.174999999999999V14.115H10.440000000000001V9.705H14.850000000000001V11.174999999999999H11.91ZM4.5600000000000005 9.705V14.115H3.09V11.174999999999999H0.15V9.705H4.5600000000000005Z" stroke-width="1"></path>
  </symbol>
  <symbol id="icon-settings" viewBox="0 0 16 16">
    <path d="M1.13575 11.174375000000001C0.818125 10.6241875 0.5796875 10.049999999999999 0.41700000000000004 9.465C1.131625 9.1003125 1.621 8.3573125 1.621 7.5C1.621 6.643375000000001 1.1323750000000001 5.90075 0.41856249999999995 5.5358125000000005C0.7468750000000001 4.351999999999999 1.37025 3.2495000000000003 2.2566875 2.348375C2.9298125 2.785 3.8179999999999996 2.8373125 4.5605 2.4086250000000002S5.7018125 1.1845625 5.66025 0.38331249999999994C6.883875000000001 0.06625 8.150375 0.077625 9.3396875 0.38525C9.2988125 1.1858125 9.6975625 1.98025 10.439499999999999 2.4086250000000002C11.182 2.8373125 12.0701875 2.785 12.74325 2.3484374999999997C13.1685625 2.7818125 13.546562499999999 3.2754375000000002 13.86425 3.8256250000000005C14.181875 4.375812499999999 14.420312500000001 4.95 14.582999999999998 5.535C13.868375 5.8996249999999995 13.379000000000001 6.642687499999999 13.379000000000001 7.5C13.379000000000001 8.3566875 13.867624999999999 9.09925 14.5814375 9.4641875C14.253125 10.648 13.629750000000001 11.7504375 12.743312499999998 12.651625C12.0701875 12.2150625 11.182 12.1626875 10.439499999999999 12.591375C9.697 13.02 9.29825 13.815437500000002 9.33975 14.616687500000001C8.1161875 14.9336875 6.8496875 14.922375 5.6603125 14.61475C5.7011875 13.814124999999999 5.3024375 13.019750000000002 4.5605 12.591375C3.8179999999999996 12.1626875 2.929875 12.214937500000001 2.25675 12.6515625C1.8315000000000001 12.218125 1.4534375 11.7245625 1.13575 11.174375000000001ZM5.295375 11.3185625C6.097375 11.781625 6.673375 12.5136875 6.94925 13.3538125C7.315437500000001 13.388625000000001 7.6840625 13.389125 8.0503125 13.354999999999999C8.326062499999999 12.5144375 8.9021875 11.7818125 9.704625 11.3185625C10.5070625 10.855250000000002 11.429625000000001 10.722624999999999 12.295437499999998 10.9040625C12.508125000000001 10.6039375 12.691937499999998 10.284437500000001 12.844875 9.9499375C12.255312499999999 9.2909375 11.90925 8.4260625 11.90925 7.5C11.90925 6.573875 12.255312499999999 5.709125 12.844875 5.0501249999999995C12.768375 4.8840625 12.683875 4.7206874999999995 12.591375 4.5605C12.498875 4.40025 12.399625 4.2454374999999995 12.2940625 4.0961875C11.428624999999998 4.27725 10.5066875 4.1445 9.704625 3.6814375C8.9025625 3.2184375 8.326625 2.4863125 8.0506875 1.64625C7.684562499999999 1.6113749999999998 7.315874999999999 1.610875 6.9496875000000005 1.645C6.6739375 2.4855625 6.09775 3.2181875 5.295375 3.6814375C4.4929375 4.14475 3.5704374999999997 4.277375 2.704625 4.0959375C2.4919374999999997 4.396 2.3080625 4.7155000000000005 2.155125 5.0500625C2.7446875 5.709 3.09075 6.573875 3.09075 7.5C3.09075 8.4260625 2.7446875 9.290875 2.155125 9.949875C2.231625 10.115937500000001 2.316125 10.2793125 2.4086250000000002 10.439499999999999C2.501125 10.599687499999998 2.6003749999999997 10.7545625 2.706 10.9038125C3.5713749999999997 10.7228125 4.493375 10.8555 5.295375 11.3185625ZM7.5 9.704625C6.2824375 9.704625 5.295375 8.717625 5.295375 7.5C5.295375 6.2824375 6.2824375 5.295375 7.5 5.295375C8.717625 5.295375 9.704625 6.2824375 9.704625 7.5C9.704625 8.717625 8.717625 9.704625 7.5 9.704625ZM7.5 8.234875C7.905875 8.234875 8.234875 7.905875 8.234875 7.5S7.905875 6.765124999999999 7.5 6.765124999999999S6.765124999999999 7.094125 6.765124999999999 7.5S7.094125 8.234875 7.5 8.234875Z" stroke-width="1"></path>
  </symbol>
  <symbol id="icon-subtitle" viewBox="0 0 16 16">
    <path d="M14.115 0.885C14.520937499999999 0.885 14.850000000000001 1.2140624999999998 14.850000000000001 1.62V13.38C14.850000000000001 13.785937500000001 14.520937499999999 14.115 14.115 14.115H0.885C0.47906249999999995 14.115 0.15 13.785937500000001 0.15 13.38V1.62C0.15 1.2140624999999998 0.47906249999999995 0.885 0.885 0.885H14.115ZM13.38 2.355H1.62V12.645H13.38V2.355ZM5.295 4.5600000000000005C6.106812499999999 4.5600000000000005 6.842125 4.8895625 7.3743125 5.422124999999999L6.33525 6.461125C6.06925 6.194687500000001 5.701437499999999 6.029999999999999 5.295 6.029999999999999C4.4828125000000005 6.029999999999999 3.825 6.6878125 3.825 7.5S4.4828125000000005 8.97 5.295 8.97C5.701062500000001 8.97 6.0685625 8.8055 6.3345625000000005 8.539562499999999L7.3735625 9.5785625C6.8414375000000005 10.1106875 6.1064375 10.440000000000001 5.295 10.440000000000001C3.672125 10.440000000000001 2.355 9.122875 2.355 7.5S3.672125 4.5600000000000005 5.295 4.5600000000000005ZM10.440000000000001 4.5600000000000005C11.2518125 4.5600000000000005 11.987125 4.8895625 12.5193125 5.422124999999999L11.480250000000002 6.461125C11.21425 6.194687500000001 10.846437499999999 6.029999999999999 10.440000000000001 6.029999999999999C9.627812500000001 6.029999999999999 8.97 6.6878125 8.97 7.5S9.627812500000001 8.97 10.440000000000001 8.97C10.8460625 8.97 11.2135625 8.8055 11.4795625 8.539562499999999L12.518562499999998 9.5785625C11.986437500000001 10.1106875 11.251437500000002 10.440000000000001 10.440000000000001 10.440000000000001C8.817125 10.440000000000001 7.5 9.122875 7.5 7.5S8.817125 4.5600000000000005 10.440000000000001 4.5600000000000005Z" stroke-width="1"></path>
  </symbol>
  <symbol id="icon-lightlamp" viewBox="0 0 16 16">
    <path d="M6.081124999999999 11.35H8.9188125C9.01125 10.508875 9.4405 9.814562500000001 10.1373125 9.0558125C10.215812500000002 8.970437500000001 10.7191875 8.4495 10.778875000000001 8.3750625C11.37225 7.635187500000001 11.7 6.7195 11.7 5.75C11.7 3.4303749999999997 9.8195625 1.55 7.5 1.55C5.180375000000001 1.55 3.3000000000000003 3.4303749999999997 3.3000000000000003 5.75C3.3000000000000003 6.719 3.6274374999999996 7.6341875 4.22025 8.373875C4.28 8.4485 4.7845625 8.970875 4.8620625 9.055250000000001C5.559374999999999 9.8145 5.9887500000000005 10.508875 6.081124999999999 11.35ZM8.9 12.75H6.1V13.45H8.9V12.75ZM3.1277500000000003 9.249437499999999C2.3594999999999997 8.2908125 1.9 7.0740625 1.9 5.75C1.9 2.6571875 4.4071875 0.15 7.5 0.15C10.592812499999999 0.15 13.100000000000001 2.6571875 13.100000000000001 5.75C13.100000000000001 7.07475 12.6399375 8.2920625 11.871 9.251000000000001C11.4368125 9.792375 10.3 10.649999999999999 10.3 11.7V13.45C10.3 14.22325 9.67325 14.850000000000001 8.9 14.850000000000001H6.1C5.3268125 14.850000000000001 4.699999999999999 14.22325 4.699999999999999 13.45V11.7C4.699999999999999 10.649999999999999 3.5621875 9.7915 3.1277500000000003 9.249437499999999ZM8.2 5.753374999999999H9.95L6.800000000000001 9.953375V7.153375H5.05L8.2 2.9499999999999997V5.753374999999999Z" stroke-width="1"></path>
  </symbol>
  <symbol id="icon-lamp" viewBox="0 0 16 16">
    <path d="M6.081124999999999 11.35H6.800000000000001V7.8500000000000005H8.2V11.35H8.9188125C9.01125 10.508875 9.4405 9.814562500000001 10.1373125 9.0558125C10.215812500000002 8.970437500000001 10.7191875 8.4495 10.778875000000001 8.3750625C11.37225 7.635187500000001 11.7 6.7195 11.7 5.75C11.7 3.4303749999999997 9.8195625 1.55 7.5 1.55C5.180375000000001 1.55 3.3000000000000003 3.4303749999999997 3.3000000000000003 5.75C3.3000000000000003 6.719 3.6274374999999996 7.6341875 4.22025 8.373875C4.28 8.4485 4.7845625 8.970875 4.8620625 9.055250000000001C5.559374999999999 9.8145 5.9887500000000005 10.508875 6.081124999999999 11.35ZM6.1 12.75V13.45H8.9V12.75H6.1ZM3.1277500000000003 9.249437499999999C2.3594999999999997 8.2908125 1.9 7.0740625 1.9 5.75C1.9 2.6571875 4.4071875 0.15 7.5 0.15C10.592812499999999 0.15 13.100000000000001 2.6571875 13.100000000000001 5.75C13.100000000000001 7.07475 12.6399375 8.2920625 11.871 9.251000000000001C11.4368125 9.792375 10.3 10.649999999999999 10.3 11.7V13.45C10.3 14.22325 9.67325 14.850000000000001 8.9 14.850000000000001H6.1C5.3268125 14.850000000000001 4.699999999999999 14.22325 4.699999999999999 13.45V11.7C4.699999999999999 10.649999999999999 3.5621875 9.7915 3.1277500000000003 9.249437499999999Z" stroke-width="1"></path>
  </symbol>
  <symbol id="icon-forward" viewBox="-0.5 -0.5 16 16">
    <path d="M7.5 1.25C4.04821875 1.25 1.25 4.04821875 1.25 7.5c0 3.45175 2.79821875 6.25 6.25 6.25 3.45175 0 6.25 -2.79825 6.25 -6.25h-1.25c0 2.7614375000000004 -2.2385625 5 -5 5 -2.761425 0 -5 -2.2385625 -5 -5 0 -2.761425 2.238575 -5 5 -5 1.718625 0 3.2346875 0.8670875 4.1346875 2.1876499999999997L10 4.6875v0.7811374999999999c-0.261125 -0.19615625 -0.58575 -0.3123875 -0.9375 -0.3123875 -0.8629375 0 -1.5625 0.6995562499999999 -1.5625 1.5625v1.5625c0 0.8629375 0.6995625 1.5625 1.5625 1.5625s1.5625 -0.6995625 1.5625 -1.5625v-1.5625c0 -0.284625 -0.0760625 -0.5514249999999999 -0.2090625 -0.78125H13.75v-3.75h-1.25l0.0000625 1.5619874999999999C11.3598125 2.2317187499999998 9.5445625 1.25 7.5 1.25Zm2.1875 5.46875v1.5625c0 0.3451875 -0.2798125 0.625 -0.625 0.625s-0.625 -0.2798125 -0.625 -0.625v-1.5625c0 -0.3451875 0.2798125 -0.625 0.625 -0.625s0.625 0.2798125 0.625 0.625ZM6.25 5.3125H5.3125v4.375H6.25v-4.375Z" stroke-width="1"></path>
  </symbol>
</svg>